<?xml version="1.0" encoding="UTF-8"?>
<svg width="32px" height="32px" viewBox="0 0 32 32" version="1.1" xmlns="http://www.w3.org/2000/svg" xmlns:xlink="http://www.w3.org/1999/xlink">
    <!-- Generator: Sketch 41.2 (35397) - http://www.bohemiancoding.com/sketch -->
    <title>favicon</title>
    <desc>Created with Sketch.</desc>
    <defs></defs>
    <g id="Page-1" stroke="none" stroke-width="1" fill="none" fill-rule="evenodd">
        <g id="favicon">
            <g id="Group">
                <rect id="Rectangle-2" fill="#394950" x="0" y="0" width="32" height="32" rx="16"></rect>
                <path d="M15.0708424,23.1444184 C14.5612041,23.0583237 14.0751987,22.9258389 13.612822,22.7469633 C12.7213834,22.4021002 11.9535864,21.9140936 11.3094082,21.2829291 C10.6652299,20.6517645 10.1609565,19.8937277 9.79657278,19.0087959 C9.4321891,18.1238641 9.25,17.1413443 9.25,16.061207 C9.25,14.9550422 9.4321891,13.9497488 9.79657278,13.0452965 C10.1609565,12.1408441 10.6652299,11.3697938 11.3094082,10.7321224 C11.9535864,10.0944509 12.7213834,9.60319104 13.612822,9.25832792 C14.0751987,9.07945228 14.5612041,8.94696747 15.0708424,8.86087277 L15.0708424,6.80851064 L17.5256876,6.80851064 L17.5256876,8.80416298 C18.09766,8.88025468 18.6413057,9.02513573 19.1566316,9.23880746 C19.9569743,9.57065688 20.7019976,10.1334911 21.3917239,10.9273269 L19.4787192,12.3327998 C18.9711848,11.7862243 18.4799248,11.4218461 18.0049247,11.2396542 C17.5299246,11.0574624 17.0516782,10.9663679 16.5701712,10.9663679 C15.8544175,10.9663679 15.2069955,11.0932496 14.6278857,11.3470168 C14.048776,11.600784 13.5510093,11.9521487 13.1345708,12.4011214 C12.7181323,12.8500941 12.396048,13.3738878 12.1683082,13.9725181 C11.9405684,14.5711485 11.8267002,15.2153171 11.8267002,15.9050433 C11.8267002,16.6468244 11.9405684,17.3300335 12.1683082,17.9546912 C12.396048,18.579349 12.7181323,19.1194095 13.1345708,19.5748891 C13.5510093,20.0303687 14.048776,20.3882402 14.6278857,20.6485142 C15.2069955,20.9087883 15.8544175,21.0389234 16.5701712,21.0389234 C17.1297604,21.0389234 17.6730743,20.9055349 18.2001293,20.638754 C18.7271842,20.3719731 19.2184441,19.9457807 19.6739237,19.3601641 L21.7040512,20.8046779 C21.0793935,21.6635823 20.3181033,22.2882306 19.4201578,22.6786417 C18.8152411,22.941649 18.1837539,23.1160652 17.5256876,23.2018921 L17.5256876,25.1977357 L15.0708424,25.1977357 L15.0708424,23.1444184 Z" id="Combined-Shape" stroke="#49CC60" stroke-width="0.5" fill="#49CC60"></path>
            </g>
        </g>
    </g>
</svg>